<?xml version="1.0" encoding="UTF-8"?>
<svg xmlns="http://www.w3.org/2000/svg" id="Icons" viewBox="0 0 74 74" width="512" height="512"><path d="M44.24,72H41.27a1,1,0,0,1,0-2h2.97a1,1,0,1,1,0,2Z"/><path d="M69,72H51.24a1,1,0,0,1,0-2H69a1,1,0,0,0,1-1V5a1,1,0,0,0-1-1H5A1,1,0,0,0,4,5V69a1,1,0,0,0,1,1H24.37a1,1,0,1,1,0,2H5a3,3,0,0,1-3-3V5A3,3,0,0,1,5,2H69a3,3,0,0,1,3,3V69A3,3,0,0,1,69,72Z"/><path d="M34.27,72h-2.9a1,1,0,0,1,0-2h2.9a1,1,0,1,1,0,2Z"/><path d="M71,19H3a1,1,0,0,1,0-2H71a1,1,0,0,1,0,2Z"/><path d="M62.5,13.814A3.318,3.318,0,1,1,65.812,10.5,3.321,3.321,0,0,1,62.5,13.814Zm0-4.635A1.318,1.318,0,1,0,63.812,10.5,1.319,1.319,0,0,0,62.5,9.179Z"/><path d="M52.833,13.814A3.318,3.318,0,1,1,56.151,10.5,3.321,3.321,0,0,1,52.833,13.814Zm0-4.635A1.318,1.318,0,1,0,54.151,10.5,1.319,1.319,0,0,0,52.833,9.179Z"/><path d="M43.171,13.814A3.318,3.318,0,1,1,46.489,10.5,3.321,3.321,0,0,1,43.171,13.814Zm0-4.635A1.318,1.318,0,1,0,44.489,10.5,1.319,1.319,0,0,0,43.171,9.179Z"/><path d="M33.521,11.5H9.188a1,1,0,0,1,0-2H33.521a1,1,0,0,1,0,2Z"/><path d="M23.078,51.925a6.244,6.244,0,0,1-4.864-2A7.765,7.765,0,0,1,16.4,44.5a7.762,7.762,0,0,1,1.818-5.422,6.244,6.244,0,0,1,4.864-2,6.354,6.354,0,0,1,3.988,1.264,4.609,4.609,0,0,1,1.851,3.331H26.958A2.908,2.908,0,0,0,25.777,39.5a4.315,4.315,0,0,0-2.679-.8,4.3,4.3,0,0,0-3.459,1.5,6.469,6.469,0,0,0-1.273,4.3A6.505,6.505,0,0,0,19.63,48.79,4.239,4.239,0,0,0,23.059,50.3a4.253,4.253,0,0,0,2.723-.823,3.213,3.213,0,0,0,1.176-2.351h1.959a4.837,4.837,0,0,1-1.8,3.547A6.34,6.34,0,0,1,23.078,51.925Z"/><path d="M23.078,52.05a6.393,6.393,0,0,1-4.957-2.045,7.922,7.922,0,0,1-1.85-5.506,7.923,7.923,0,0,1,1.85-5.507,6.392,6.392,0,0,1,4.957-2.045,6.5,6.5,0,0,1,4.064,1.29,4.751,4.751,0,0,1,1.9,3.418l.014.137H26.843l-.01-.114A2.8,2.8,0,0,0,25.7,39.6a4.211,4.211,0,0,0-2.6-.779,4.2,4.2,0,0,0-3.364,1.46A6.381,6.381,0,0,0,18.491,44.5a6.416,6.416,0,0,0,1.234,4.21,4.137,4.137,0,0,0,3.334,1.464,4.157,4.157,0,0,0,2.646-.8,3.106,3.106,0,0,0,1.128-2.264L26.844,47h2.21l-.012.136a4.975,4.975,0,0,1-1.85,3.634A6.485,6.485,0,0,1,23.078,52.05Zm0-14.853a6.147,6.147,0,0,0-4.771,1.963A7.677,7.677,0,0,0,16.521,44.5a7.678,7.678,0,0,0,1.786,5.338A6.15,6.15,0,0,0,23.078,51.8a6.244,6.244,0,0,0,3.96-1.228,4.7,4.7,0,0,0,1.741-3.323H27.071a3.314,3.314,0,0,1-1.211,2.324,4.4,4.4,0,0,1-2.8.85,4.374,4.374,0,0,1-3.525-1.553A6.654,6.654,0,0,1,18.241,44.5a6.612,6.612,0,0,1,1.3-4.377A4.431,4.431,0,0,1,23.1,38.573a4.461,4.461,0,0,1,2.755.829,3.03,3.03,0,0,1,1.218,2.14h1.707a4.494,4.494,0,0,0-1.789-3.107A6.259,6.259,0,0,0,23.078,37.2Z"/><path d="M44.214,45.419H40.285v3.929H38.639V45.419H34.711V43.773h3.928V39.845h1.646v3.928h3.929Z"/><path d="M40.41,49.473h-1.9V45.544H34.585v-1.9h3.929V39.72h1.9v3.928h3.929v1.9H40.41Zm-1.646-.25h1.4V45.294h3.929V43.9H40.16V39.97h-1.4V43.9H34.835v1.4h3.929Z"/><path d="M57.6,45.419H53.675v3.929H52.029V45.419H48.1V43.773h3.929V39.845h1.646v3.928H57.6Z"/><path d="M53.8,49.473H51.9V45.544H47.975v-1.9H51.9V39.72h1.9v3.928h3.929v1.9H53.8Zm-1.646-.25h1.4V45.294h3.929V43.9H53.55V39.97h-1.4V43.9H48.225v1.4h3.929Z"/></svg>
