<svg width="512" height="512" viewBox="0 0 512 512" fill="none" xmlns="http://www.w3.org/2000/svg">
<path d="M306.093 498.162H285.544C283.709 498.162 281.949 497.433 280.651 496.136C279.354 494.838 278.625 493.078 278.625 491.243C278.625 489.408 279.354 487.648 280.651 486.351C281.949 485.053 283.709 484.324 285.544 484.324H306.093C307.928 484.324 309.688 485.053 310.985 486.351C312.283 487.648 313.012 489.408 313.012 491.243C313.012 493.078 312.283 494.838 310.985 496.136C309.688 497.433 307.928 498.162 306.093 498.162Z" fill="#FFC93C"/>
<path d="M477.405 498.162H354.525C352.69 498.162 350.931 497.433 349.633 496.136C348.335 494.838 347.606 493.078 347.606 491.243C347.606 489.408 348.335 487.648 349.633 486.351C350.931 485.053 352.69 484.324 354.525 484.324H477.405C479.24 484.324 481 483.595 482.298 482.298C483.595 481 484.324 479.24 484.324 477.405V34.5946C484.324 32.7596 483.595 30.9997 482.298 29.7022C481 28.4046 479.24 27.6757 477.405 27.6757H34.5946C32.7596 27.6757 30.9997 28.4046 29.7022 29.7022C28.4046 30.9997 27.6757 32.7596 27.6757 34.5946V477.405C27.6757 479.24 28.4046 481 29.7022 482.298C30.9997 483.595 32.7596 484.324 34.5946 484.324H168.614C170.449 484.324 172.209 485.053 173.506 486.351C174.804 487.648 175.533 489.408 175.533 491.243C175.533 493.078 174.804 494.838 173.506 496.136C172.209 497.433 170.449 498.162 168.614 498.162H34.5946C29.0896 498.162 23.81 495.975 19.9173 492.083C16.0247 488.19 13.8378 482.91 13.8378 477.405V34.5946C13.8378 29.0896 16.0247 23.81 19.9173 19.9173C23.81 16.0247 29.0896 13.8378 34.5946 13.8378H477.405C482.91 13.8378 488.19 16.0247 492.083 19.9173C495.975 23.81 498.162 29.0896 498.162 34.5946V477.405C498.162 482.91 495.975 488.19 492.083 492.083C488.19 495.975 482.91 498.162 477.405 498.162Z" fill="#FFC93C"/>
<path d="M237.111 498.162H217.046C215.211 498.162 213.452 497.433 212.154 496.136C210.857 494.838 210.128 493.078 210.128 491.243C210.128 489.408 210.857 487.648 212.154 486.351C213.452 485.053 215.211 484.324 217.046 484.324H237.111C238.946 484.324 240.706 485.053 242.004 486.351C243.301 487.648 244.03 489.408 244.03 491.243C244.03 493.078 243.301 494.838 242.004 496.136C240.706 497.433 238.946 498.162 237.111 498.162Z" fill="#FFC93C"/>
<path d="M491.243 131.459H20.7567C18.9217 131.459 17.1619 130.731 15.8643 129.433C14.5668 128.135 13.8378 126.376 13.8378 124.541C13.8378 122.706 14.5668 120.946 15.8643 119.648C17.1619 118.351 18.9217 117.622 20.7567 117.622H491.243C493.078 117.622 494.838 118.351 496.136 119.648C497.433 120.946 498.162 122.706 498.162 124.541C498.162 126.376 497.433 128.135 496.136 129.433C494.838 130.731 493.078 131.459 491.243 131.459Z" fill="#FFC93C"/>
<path d="M432.432 95.578C427.889 95.5862 423.445 94.246 419.664 91.7273C415.883 89.2085 412.934 85.6244 411.191 81.4286C409.448 77.2329 408.989 72.6143 409.872 68.1576C410.755 63.7009 412.941 59.6065 416.153 56.3929C419.365 53.1792 423.458 50.9909 427.914 50.1048C432.37 49.2188 436.989 49.6749 441.186 51.4155C445.383 53.1561 448.968 56.1028 451.489 59.8826C454.011 63.6624 455.353 68.1053 455.348 72.6487C455.335 78.7236 452.917 84.5462 448.623 88.8431C444.329 93.14 438.507 95.5615 432.432 95.578V95.578ZM432.432 63.5088C430.628 63.5006 428.862 64.0279 427.357 65.024C425.852 66.0201 424.677 67.4402 423.98 69.1045C423.283 70.7689 423.095 72.6027 423.441 74.3737C423.786 76.1448 424.649 77.7736 425.921 79.0539C427.192 80.3342 428.815 81.2085 430.584 81.5661C432.353 81.9237 434.188 81.7485 435.857 81.0627C437.526 80.3769 438.954 79.2114 439.96 77.7136C440.967 76.2158 441.506 74.4531 441.51 72.6487C441.514 70.2342 440.561 67.9168 438.859 66.2037C437.158 64.4906 434.847 63.5216 432.432 63.5088V63.5088Z" fill="#FFC93C"/>
<path d="M365.547 95.578C361.006 95.578 356.566 94.2309 352.79 91.7071C349.014 89.1833 346.072 85.5963 344.335 81.3998C342.598 77.2034 342.145 72.5861 343.033 68.1321C343.922 63.6781 346.111 59.5877 349.324 56.3782C352.537 53.1687 356.631 50.9844 361.086 50.1018C365.541 49.2191 370.157 49.6777 374.352 51.4195C378.546 53.1613 382.13 56.108 384.649 59.8869C387.168 63.6658 388.51 68.107 388.504 72.6487C388.491 78.7307 386.068 84.5596 381.764 88.8577C377.461 93.1558 371.629 95.5725 365.547 95.578V95.578ZM365.547 63.5088C363.745 63.5088 361.982 64.0431 360.483 65.0442C358.984 66.0453 357.815 67.4683 357.124 69.1334C356.433 70.7985 356.252 72.631 356.602 74.3993C356.952 76.1677 357.819 77.7926 359.092 79.0688C360.365 80.3449 361.988 81.2151 363.756 81.5693C365.523 81.9235 367.356 81.7459 369.023 81.0588C370.689 80.3718 372.115 79.2062 373.119 77.7093C374.124 76.2124 374.662 74.4514 374.666 72.6487C374.668 71.4496 374.434 70.262 373.976 69.1536C373.519 68.0453 372.848 67.0379 372.001 66.1891C371.154 65.3403 370.148 64.6667 369.041 64.2068C367.933 63.7469 366.746 63.5097 365.547 63.5088V63.5088Z" fill="#FFC93C"/>
<path d="M298.697 95.578C294.155 95.578 289.715 94.2309 285.94 91.7071C282.164 89.1833 279.221 85.5963 277.485 81.3998C275.748 77.2034 275.295 72.5861 276.183 68.1321C277.071 63.6781 279.26 59.5877 282.473 56.3782C285.687 53.1687 289.78 50.9844 294.235 50.1018C298.69 49.2191 303.307 49.6777 307.501 51.4195C311.695 53.1613 315.279 56.108 317.798 59.8869C320.317 63.6658 321.659 68.107 321.654 72.6487C321.641 78.7307 319.217 84.5596 314.914 88.8577C310.611 93.1558 304.779 95.5725 298.697 95.578V95.578ZM298.697 63.5088C296.894 63.5088 295.132 64.0431 293.633 65.0442C292.133 66.0453 290.964 67.4683 290.274 69.1334C289.583 70.7985 289.401 72.631 289.751 74.3993C290.101 76.1677 290.968 77.7926 292.241 79.0688C293.514 80.3449 295.137 81.2151 296.905 81.5693C298.672 81.9235 300.505 81.7459 302.172 81.0588C303.839 80.3718 305.264 79.2062 306.269 77.7093C307.273 76.2124 307.812 74.4514 307.816 72.6487C307.818 71.4496 307.583 70.262 307.126 69.1536C306.668 68.0453 305.997 67.0379 305.15 66.1891C304.303 65.3403 303.297 64.6667 302.19 64.2068C301.083 63.7469 299.896 63.5097 298.697 63.5088V63.5088Z" fill="#FFC93C"/>
<path d="M231.929 79.5676H63.571C61.736 79.5676 59.9762 78.8386 58.6786 77.5411C57.3811 76.2435 56.6521 74.4837 56.6521 72.6487C56.6521 70.8136 57.3811 69.0538 58.6786 67.7562C59.9762 66.4587 61.736 65.7297 63.571 65.7297H231.929C233.764 65.7297 235.524 66.4587 236.821 67.7562C238.119 69.0538 238.848 70.8136 238.848 72.6487C238.848 74.4837 238.119 76.2435 236.821 77.5411C235.524 78.8386 233.764 79.5676 231.929 79.5676Z" fill="#FFC93C"/>
<path d="M159.675 359.265C153.396 359.545 147.133 358.452 141.32 356.062C135.508 353.672 130.287 350.043 126.021 345.427C117.214 334.968 112.725 321.545 113.47 307.892C112.736 294.242 117.234 280.826 126.049 270.378C130.314 265.762 135.535 262.133 141.348 259.743C147.16 257.353 153.424 256.26 159.702 256.54C169.624 256.257 179.348 259.339 187.295 265.285C190.95 267.991 193.983 271.448 196.192 275.423C198.401 279.398 199.734 283.8 200.102 288.332H186.52C186.347 285.38 185.525 282.501 184.113 279.903C182.7 277.304 180.732 275.049 178.349 273.297C172.956 269.446 166.435 267.499 159.813 267.762C155.298 267.56 150.796 268.39 146.649 270.189C142.502 271.987 138.819 274.706 135.881 278.141C129.491 286.69 126.368 297.242 127.073 307.892C126.388 318.509 129.487 329.025 135.818 337.574C138.708 341.017 142.35 343.75 146.464 345.561C150.578 347.373 155.053 348.215 159.543 348.022C166.291 348.342 172.943 346.332 178.384 342.327C180.81 340.343 182.789 337.868 184.192 335.064C185.594 332.261 186.387 329.193 186.52 326.061H200.074C199.857 330.801 198.634 335.44 196.487 339.671C194.34 343.902 191.317 347.628 187.62 350.602C179.571 356.603 169.707 359.66 159.675 359.265V359.265Z" fill="#FFC93C"/>
<path d="M159.675 360.13C153.274 360.395 146.893 359.268 140.971 356.825C135.049 354.382 129.729 350.682 125.378 345.981C116.442 335.361 111.867 321.746 112.578 307.885C111.866 294.022 116.441 280.405 125.378 269.782C129.729 265.081 135.049 261.381 140.971 258.938C146.893 256.495 153.274 255.367 159.675 255.633C169.785 255.362 179.691 258.507 187.793 264.559C191.537 267.342 194.646 270.89 196.912 274.968C199.179 279.045 200.552 283.559 200.939 288.208L201.036 289.155H185.725L185.655 288.367C185.478 285.543 184.684 282.793 183.33 280.309C181.975 277.825 180.093 275.668 177.816 273.989C172.579 270.256 166.254 268.361 159.827 268.599C155.436 268.413 151.06 269.226 147.029 270.976C142.997 272.725 139.415 275.367 136.552 278.701C130.311 287.103 127.258 297.448 127.938 307.892C127.273 318.303 130.295 328.616 136.476 337.021C139.293 340.357 142.837 343.004 146.835 344.76C150.833 346.515 155.18 347.333 159.543 347.15C166.099 347.447 172.558 345.494 177.851 341.615C180.178 339.697 182.075 337.312 183.42 334.613C184.765 331.914 185.526 328.963 185.655 325.95L185.731 325.189H201.022L200.939 326.13C200.703 330.988 199.44 335.74 197.234 340.074C195.027 344.407 191.928 348.225 188.139 351.274C179.938 357.383 169.895 360.508 159.675 360.13V360.13ZM159.675 257.363C153.517 257.1 147.376 258.178 141.676 260.523C135.976 262.868 130.854 266.424 126.665 270.945C118.015 281.251 113.598 294.456 114.307 307.892C113.603 321.323 118.019 334.522 126.665 344.825C130.856 349.343 135.978 352.897 141.678 355.241C147.377 357.585 153.518 358.663 159.675 358.4C169.509 358.771 179.175 355.774 187.074 349.904C190.553 347.104 193.418 343.617 195.49 339.662C197.562 335.706 198.798 331.366 199.12 326.912H187.302C187.072 330.021 186.21 333.05 184.77 335.815C183.329 338.58 181.34 341.022 178.923 342.992C173.326 347.105 166.49 349.18 159.55 348.873C154.935 349.062 150.337 348.192 146.109 346.329C141.882 344.467 138.137 341.661 135.161 338.128C128.711 329.417 125.54 318.71 126.208 307.892C125.515 297.049 128.703 286.314 135.203 277.608C138.224 274.069 142.011 271.264 146.278 269.406C150.544 267.547 155.178 266.685 159.827 266.883C166.64 266.638 173.343 268.655 178.889 272.619C181.251 274.36 183.222 276.577 184.674 279.128C186.126 281.678 187.026 284.505 187.316 287.426H199.126C198.649 283.185 197.304 279.088 195.174 275.389C193.045 271.691 190.177 268.471 186.749 265.929C178.941 260.119 169.403 257.109 159.675 257.384V257.363Z" fill="#FFC93C"/>
<path d="M305.913 314.25H278.729V341.435H267.34V314.25H240.163V302.862H267.34V275.684H278.729V302.862H305.913V314.25Z" fill="#FFC93C"/>
<path d="M279.594 342.3H266.448V315.115H239.291V301.969H266.475V274.819H279.621V301.997H306.806V315.143H279.594V342.3ZM268.205 340.57H277.891V313.385H305.076V303.741H277.864V276.549H268.177V303.741H241.021V313.427H268.205V340.57Z" fill="#FFC93C"/>
<path d="M398.53 314.25H371.373V341.435H359.984V314.25H332.8V302.862H359.984V275.684H371.373V302.862H398.53V314.25Z" fill="#FFC93C"/>
<path d="M372.238 342.3H359.092V315.115H331.935V301.969H359.092V274.819H372.238V301.997H399.422V315.143H372.238V342.3ZM360.849 340.57H370.536V313.385H397.72V303.741H370.508V276.549H360.822V303.741H333.665V313.427H360.849V340.57Z" fill="#FFC93C"/>
</svg>
