<svg id="Capa_1" enable-background="new 0 0 512 512" height="512" viewBox="0 0 512 512" width="512" xmlns="http://www.w3.org/2000/svg"><g><path d="m496 402h-45v-71c0-8.284-6.716-15-15-15h-165v-56h85c24.813 0 45-20.187 45-45v-100c0-8.284-6.716-15-15-15h-25v-45c0-8.284-6.716-15-15-15h-92.5l-25.5-34c-2.833-3.777-7.278-6-12-6h-90c-8.284 0-15 6.716-15 15v200c0 24.813 20.187 45 45 45h85v56h-165c-8.284 0-15 6.716-15 15v71h-45c-8.284 0-15 6.716-15 15v80c0 8.284 6.716 15 15 15h120c8.284 0 15-6.716 15-15v-80c0-8.284-6.716-15-15-15h-45v-56h150v56h-45c-8.284 0-15 6.716-15 15v80c0 8.284 6.716 15 15 15h120c8.284 0 15-6.716 15-15v-80c0-8.284-6.716-15-15-15h-45v-56h150v56h-45c-8.284 0-15 6.716-15 15v80c0 8.284 6.716 15 15 15h120c8.284 0 15-6.716 15-15v-80c0-8.284-6.716-15-15-15zm-375 30v50h-90v-50zm50-317v100c0 8.271-6.729 15-15 15s-15-6.729-15-15v-185h67.5l25.5 34c2.833 3.777 7.278 6 12 6h85v30h-145c-8.284 0-15 6.716-15 15zm130 317v50h-90v-50zm-102.57-202c1.664-4.693 2.57-9.743 2.57-15v-85h170v85c0 8.271-6.729 15-15 15zm282.57 252h-90v-50h90z"/></g></svg>