<svg width="512" height="512" viewBox="0 0 512 512" fill="none" xmlns="http://www.w3.org/2000/svg">
<path d="M496 402H451V331C451 322.716 444.284 316 436 316H271V260H356C380.813 260 401 239.813 401 215V115C401 106.716 394.284 100 386 100H361V55C361 46.716 354.284 40 346 40H253.5L228 6C225.167 2.223 220.722 0 216 0H126C117.716 0 111 6.716 111 15V215C111 239.813 131.187 260 156 260H241V316H76C67.716 316 61 322.716 61 331V402H16C7.716 402 1 408.716 1 417V497C1 505.284 7.716 512 16 512H136C144.284 512 151 505.284 151 497V417C151 408.716 144.284 402 136 402H91V346H241V402H196C187.716 402 181 408.716 181 417V497C181 505.284 187.716 512 196 512H316C324.284 512 331 505.284 331 497V417C331 408.716 324.284 402 316 402H271V346H421V402H376C367.716 402 361 408.716 361 417V497C361 505.284 367.716 512 376 512H496C504.284 512 511 505.284 511 497V417C511 408.716 504.284 402 496 402ZM121 432V482H31V432H121ZM171 115V215C171 223.271 164.271 230 156 230C147.729 230 141 223.271 141 215V30H208.5L234 64C236.833 67.777 241.278 70 246 70H331V100H186C177.716 100 171 106.716 171 115ZM301 432V482H211V432H301ZM198.43 230C200.094 225.307 201 220.257 201 215V130H371V215C371 223.271 364.271 230 356 230H198.43ZM481 482H391V432H481V482Z" fill="#FFC93C"/>
</svg>
